PathFileType	4	(X/Y/Z)	/Users/visionmauri/Downloads/pro-gait-dataset/4_0_1_f_1_Sports2D/4_0_1_f_1_Sports2D_m_person00.trc
DataRate	CameraRate	NumFrames	NumMarkers	Units	OrigDataRate	OrigDataStartFrame	OrigNumFrames
30.0	30.0	11	22	m	30.0	572	654
Frame#	Time	Hip			RHip			RKnee			RAnkle			RBigToe			RSmallToe			RHeel			LHip			LKnee			LAnkle			LBigToe			LSmallToe			LHeel			Neck			Head			Nose			RShoulder			RElbow			RWrist			LShoulder			LElbow			LWrist			
		X1	Y1	Z1	X2	Y2	Z2	X3	Y3	Z3	X4	Y4	Z4	X5	Y5	Z5	X6	Y6	Z6	X7	Y7	Z7	X8	Y8	Z8	X9	Y9	Z9	X10	Y10	Z10	X11	Y11	Z11	X12	Y12	Z12	X13	Y13	Z13	X14	Y14	Z14	X15	Y15	Z15	X16	Y16	Z16	X17	Y17	Z17	X18	Y18	Z18	X19	Y19	Z19	X20	Y20	Z20	X21	Y21	Z21	X22	Y22	Z22
572	19.095865237366002	1.4791661092272521	0.4138606342635403	0.0301	1.398631543420068	0.35491791267855716	0.0301	1.552461398497212	0.11228232445493332	0.129	1.7197061193651084	-0.07340097808443642	0.023	1.7911311248423143	-0.18581722142558305	0.2179	1.7453247103366973	-0.1967758136065875	0.1804	1.7493066889763462	-0.07238221516341314	-0.0119	1.5562206875516889	0.465506454030568	0.0301	1.779546754011028	0.202611479723876	0.129	1.9843734159216166	-0.08084284281309079	0.023	2.108967179254654	-0.11902456736526856	0.2179	2.12631616069363	-0.08642253914023709	0.1804	1.9913140280550103	-0.13492327411932015	-0.0119	1.2261023643941695	0.8130887571491382	0.0008	1.113834979086113	1.0202983870643505	0.0655	1.2025299829456357	0.8826876471170121	0.1076	1.118305034664569	0.6778374559319689	-0.01275	1.154786647701732	0.44802591135390735	0.0702	1.2307491423649646	0.259563808409826	0.1076	1.386167636545352	0.8542126100682715	-0.01275	1.5834986026691398	0.7038140545004291	0.0702	1.7350992504526623	0.5465787973971284	0.1076
573	19.129249617151608	1.4801027089492271	0.42020668137973183	0.0301	1.3986292792249677	0.36068495827617975	0.0301	1.5507351890797008	0.11146991246004452	0.129	1.7265101400162026	-0.07115719051273199	0.023	1.8016663320236144	-0.18470487387045226	0.2179	1.7557043796463823	-0.1956389880453816	0.1804	1.758775090602912	-0.0692057222338139	-0.0119	1.5604216516327623	0.4685751206651204	0.0301	1.7833719392088758	0.20449353905096848	0.129	1.9846491083254993	-0.08100589928648533	0.023	2.108439108522533	-0.11870425096549712	0.2179	2.124989348850548	-0.08489616021500238	0.1804	1.9920288017378087	-0.13632075649378353	-0.0119	1.2267316656746046	0.8266642333914664	0.0008	1.1150586935602567	1.0332080675785191	0.0655	1.1983608787107647	0.8950323048504054	0.1076	1.120185399277952	0.6892111070566372	-0.01275	1.1580357564870334	0.457110617815493	0.0702	1.2341607365586746	0.26592206484228015	0.1076	1.391309006741499	0.8677958593283731	-0.01275	1.5891464250421987	0.715887020641742	0.0702	1.7437630940388695	0.5545879445816326	0.1076
574	19.162633996937213	1.4816688166815537	0.4262630819020594	0.0301	1.4001209291970227	0.3670316025638967	0.0301	1.5518183666266905	0.10966433477026014	0.129	1.7371374443452376	-0.07183479484983044	0.023	1.815427795687682	-0.1874870637840789	0.2179	1.7683346614365938	-0.19692136491704404	0.1804	1.7722700164979108	-0.07148630537057403	-0.0119	1.5638323544849693	0.47166118540122365	0.0301	1.7869650946389073	0.20638303324635962	0.129	1.9846543627941795	-0.0815425629971201	0.023	2.1079276289719004	-0.1197772478523001	0.2179	2.1237262095513976	-0.08532810820507498	0.1804	1.9928042003466537	-0.1374057816551913	-0.0119	1.2270345194911574	0.8390479824740438	0.0008	1.113839523204298	1.0444484429441896	0.0655	1.1935012539876417	0.9038290763926277	0.1076	1.1230842814888067	0.6996325197263089	-0.01275	1.1628728113957165	0.4623869034878488	0.0702	1.2393810752660857	0.26802629487849344	0.1076	1.3959128019137967	0.8807182307289135	-0.01275	1.5943574091358468	0.7280988238626961	0.0702	1.7504123594612628	0.564774641145249	0.1076
575	19.19601837672282	1.4852054798224779	0.4301754091596522	0.0301	1.4032540407421534	0.3727183015792748	0.0301	1.5580342305677348	0.10583028960583586	0.129	1.7510432913999858	-0.0782427852337408	0.023	1.8328693407854189	-0.19882357814493792	0.2179	1.7828807460790805	-0.20673544542472452	0.1804	1.7884880243554222	-0.0830325175114841	-0.0119	1.5672336783591045	0.47452878744984167	0.0301	1.7918126028711725	0.2070297992223245	0.129	1.9848465060432037	-0.08218744788926517	0.023	2.1071031646153258	-0.12252781814980099	0.2179	2.1230451275119244	-0.0880364706265639	0.1804	1.9926278486465303	-0.13716918054429847	-0.0119	1.229013754812105	0.8487644208994163	0.0008	1.1122267707315572	1.057170406025227	0.0655	1.1923761127243766	0.9120274793095915	0.1076	1.125145737982684	0.7085568574209845	-0.01275	1.1678151166038646	0.46783829506485297	0.0702	1.2456267748781205	0.2694000851904447	0.1076	1.4001915260454798	0.8923649531817451	-0.01275	1.6003541441809115	0.7403222124388409	0.0702	1.7556556438915105	0.5775421321921625	0.1076
576	19.22940275650842	1.4894905475754263	0.4326547714187997	0.0301	1.4073920497238614	0.375871971763082	0.0301	1.5677648218247253	0.10175947435821125	0.129	1.767851194795231	-0.09361977053510126	0.023	1.8522366126359935	-0.21534223436386882	0.2179	1.7993248954426653	-0.22492509070753539	0.1804	1.8072915358274328	-0.10465665988908478	-0.0119	1.5712804615225056	0.47735481515883355	0.0301	1.7978100862022686	0.20634945168447913	0.129	1.9852856666610958	-0.08253210897822888	0.023	2.1058384466420095	-0.12516466603951817	0.2179	2.1218410816169984	-0.09121720163121103	0.1804	1.991468122131413	-0.13578742445778216	-0.0119	1.2312801585934272	0.856543662185879	0.0008	1.1122679753033915	1.068365942768618	0.0655	1.1936225001902188	0.9187530291792319	0.1076	1.1254266511427133	0.7160003221502412	-0.01275	1.1714544838698524	0.4755940159527094	0.0702	1.2520643211534217	0.27264283904824016	0.1076	1.4027909210266496	0.9025719829727307	-0.01275	1.6053196454346865	0.7520783076314667	0.0702	1.7589324956564325	0.5927671959219447	0.1076
577	19.262787136294026	1.4932643609075351	0.4351799070170897	0.0301	1.4119093153573616	0.37604107179423646	0.0301	1.5791842489995618	0.09816255788179018	0.129	1.7870565046238587	-0.11715669163770952	0.023	1.8707413176230527	-0.23218333164667151	0.2179	1.8169911096349154	-0.24648070566676178	0.1804	1.8290579873065793	-0.13240517660454335	-0.0119	1.5757430579540015	0.48084477037645107	0.0301	1.8025910881830045	0.20473130336084494	0.129	1.9857200142251648	-0.0827644562611818	0.023	2.1047041255865255	-0.1261888888938639	0.2179	2.1200484818967222	-0.09327245227927873	0.1804	1.990633803339232	-0.13440172146653162	-0.0119	1.23254242766653	0.8633016052835334	0.0008	1.113222190098024	1.074479817184427	0.0655	1.1947091748451655	0.9218315080658455	0.1076	1.1247022762608856	0.7215057034323104	-0.01275	1.1733599133702453	0.4827157362286216	0.0702	1.257263148269409	0.27720007133736196	0.1076	1.403841943664871	0.9109936115265593	-0.01275	1.608106447925881	0.7624600118383713	0.0702	1.7592855928607372	0.6091699962046551	0.1076
578	19.29617151607963	1.4967897170973679	0.43746922128976057	0.0301	1.4161397763894947	0.375161088546742	0.0301	1.591706817872639	0.09346529225452513	0.129	1.8069599336566424	-0.14275096585047464	0.023	1.88622448349704	-0.24982254990326616	0.2179	1.8340527168092993	-0.2678263496256447	0.1804	1.8523235278173409	-0.15987573884669765	-0.0119	1.5798745146983848	0.48554355337524946	0.0301	1.8048532730270452	0.20338387467720842	0.129	1.986133620630035	-0.08317051674862998	0.023	2.104717614231505	-0.12657028483204166	0.2179	2.1188012190589687	-0.09408355294107561	0.1804	1.9917816372576147	-0.1341256766448215	-0.0119	1.233700619835129	0.8681406114750667	0.0008	1.1131703269525965	1.078722276020075	0.0655	1.196619402195931	0.9235189698401496	0.1076	1.1241476762934322	0.7247355699296251	-0.01275	1.1742516532240512	0.4853918384847765	0.0702	1.2603810612368718	0.28045046634307547	0.1076	1.4047555943497654	0.9173879480485315	-0.01275	1.6109480609604379	0.771513058853986	0.0702	1.7582323410972815	0.6227999963909995	0.1076
579	19.329555895865237	1.5008512833985628	0.43805164021699666	0.0301	1.4200218874424684	0.3748738758790006	0.0301	1.6041099048062553	0.08744526700238199	0.129	1.8251421082267136	-0.16446372539985246	0.023	1.8981869963129332	-0.2691761343467086	0.2179	1.8480486703910517	-0.28778344989246035	0.1804	1.8734862773354457	-0.18221717111509106	-0.0119	1.5833193563047723	0.49039097800605913	0.0301	1.8060283503607928	0.2029157638008336	0.129	1.9866200725233516	-0.08361932385950903	0.023	2.1058144820616835	-0.1280679064250392	0.2179	2.1185452261498563	-0.09454692301311522	0.1804	1.995118179895922	-0.1348739245382561	-0.0119	1.2351077242755237	0.8704936662893141	0.0008	1.1121870999928667	1.0850789728541024	0.0655	1.2008150387126224	0.9281266688989257	0.1076	1.1241077784700084	0.7264585630570061	-0.01275	1.1745761056453101	0.48430641086166004	0.0702	1.2619719274766574	0.28080875297069574	0.1076	1.4057793937201135	0.9223773336249973	-0.01275	1.615462660521179	0.7788371162607628	0.0702	1.7583007689511654	0.630303440264551	0.1076
580	19.362940275650843	1.505148988311519	0.43769449306238206	0.0301	1.424745094126971	0.37439114134040197	0.0301	1.6153578239015143	0.08229878524494097	0.129	1.8399948815266265	-0.18099570061437936	0.023	1.906307179701129	-0.28694782760530435	0.2179	1.8571662598987824	-0.3047242917306161	0.1804	1.8904667903028793	-0.1992884669450445	-0.0119	1.5872826260229989	0.4925990751641319	0.0301	1.8077766256146903	0.20239397517436222	0.129	1.9874376598922892	-0.08427525287735103	0.023	2.106133534271742	-0.1306784033988638	0.2179	2.118523870841794	-0.09527092350073008	0.1804	1.9989788901762775	-0.13517907313159583	-0.0119	1.2355623664885589	0.8722835622804693	0.0008	1.111834065869222	1.0908293310482406	0.0655	1.2053376897282904	0.9353529200468703	0.1076	1.123540031620951	0.7270998904478567	-0.01275	1.174564209420013	0.4831435266009171	0.0702	1.2634651291728418	0.27878685089914773	0.1076	1.4061785855186337	0.9263554296250379	-0.01275	1.619423889440242	0.782914418602578	0.0702	1.7599377649890664	0.6329114060353099	0.1076
581	19.396324655436448	1.5090887285395085	0.4388805518736142	0.0301	1.430679898379442	0.37286744136963773	0.0301	1.625554190259137	0.07942364828484447	0.129	1.8513628972986726	-0.19393529450126865	0.023	1.91083086992062	-0.30016665923340424	0.2179	1.861891008794269	-0.3175122632657674	0.1804	1.903972437132862	-0.21362156811344477	-0.0119	1.5931288767396847	0.49142259468200156	0.0301	1.8106288019473964	0.2011835013781534	0.129	1.9889911334318344	-0.08555833410332793	0.023	2.104926209979095	-0.13271882662150197	0.2179	2.11820154210654	-0.09570484415838292	0.1804	2.0013892216901903	-0.13440218361497386	-0.0119	1.234316020102386	0.8753191268311371	0.0008	1.112266892639765	1.0919440458642915	0.0655	1.2074835137143036	0.9413401191527891	0.1076	1.1214445580840249	0.7262148467884338	-0.01275	1.175139666598363	0.48333434175476	0.0702	1.2657851131649542	0.2752032911319253	0.1076	1.4060512277126838	0.9287083489241715	-0.01275	1.6206000678829027	0.7839259989185671	0.0702	1.762014155511575	0.633753795565264	0.1076
582	19.42970903522205	1.5133686404245368	0.44070940727723473	0.0301	1.4361116511233079	0.37120416984312093	0.0301	1.6346763742642823	0.07732707704392462	0.129	1.860275157206054	-0.2051160586899373	0.023	1.9150086723232633	-0.30996575574300417	0.2179	1.8654101251819548	-0.3276965158847572	0.1804	1.9146811370720085	-0.22642070199322392	-0.0119	1.599392101780959	0.48987530080247965	0.0301	1.814737416029084	0.19937420761115565	0.129	1.99108134336512	-0.08710107704508141	0.023	2.1037469799652087	-0.13295791036857013	0.2179	2.11813485023197	-0.09545417883576633	0.1804	2.0015340723824573	-0.13398768278301224	-0.0119	1.2316709422827923	0.8783551145756351	0.0008	1.1109531727545396	1.0910694264867864	0.0655	1.2070486745417517	0.9455017428549055	0.1076	1.1187426682688213	0.7234972714450195	-0.01275	1.1764707535932404	0.4821389222041537	0.0702	1.267639399660665	0.27065765044575796	0.1076	1.4059328337029222	0.9294458265972358	-0.01275	1.6200134154313748	0.7841614593483553	0.0702	1.7625359669941518	0.6336267528726632	0.1076
